<svg width="108" height="108" viewBox="0 0 108 108" fill="none" xmlns="http://www.w3.org/2000/svg">
<path d="M86.0769 21H20.9231C19.3522 21 17.8456 21.624 16.7348 22.7348C15.624 23.8456 15 25.3522 15 26.9231V80.2308C15 81.8017 15.624 83.3082 16.7348 84.419C17.8456 85.5298 19.3522 86.1538 20.9231 86.1538H86.0769C87.6478 86.1538 89.1544 85.5298 90.2652 84.419C91.376 83.3082 92 81.8017 92 80.2308V26.9231C92 25.3522 91.376 23.8456 90.2652 22.7348C89.1544 21.624 87.6478 21 86.0769 21ZM40.4692 60.0923C41.0976 60.5636 41.513 61.2652 41.6241 62.0427C41.7352 62.8203 41.5328 63.6101 41.0615 64.2385C40.5903 64.8668 39.8887 65.2822 39.1111 65.3933C38.3336 65.5044 37.5437 65.302 36.9154 64.8308L25.0692 55.9462C24.7014 55.6703 24.4029 55.3126 24.1973 54.9014C23.9917 54.4901 23.8846 54.0367 23.8846 53.5769C23.8846 53.1172 23.9917 52.6637 24.1973 52.2525C24.4029 51.8413 24.7014 51.4836 25.0692 51.2077L36.9154 42.3231C37.5437 41.8518 38.3336 41.6495 39.1111 41.7605C39.8887 41.8716 40.5903 42.287 41.0615 42.9154C41.5328 43.5437 41.7352 44.3336 41.6241 45.1111C41.513 45.8887 41.0976 46.5903 40.4692 47.0615L31.7808 53.5769L40.4692 60.0923ZM62.2699 33.6606L50.4237 75.1221C50.3227 75.5027 50.1469 75.8593 49.9065 76.1711C49.6661 76.4829 49.3659 76.7436 49.0235 76.938C48.6811 77.1325 48.3034 77.2567 47.9124 77.3034C47.5215 77.3501 47.1252 77.3183 46.7466 77.21C46.3681 77.1017 46.0149 76.919 45.7078 76.6726C45.4007 76.4262 45.1458 76.1211 44.9581 75.775C44.7703 75.4289 44.6534 75.0489 44.6143 74.6571C44.5752 74.2653 44.6146 73.8697 44.7301 73.4933L56.5763 32.0317C56.804 31.2904 57.3134 30.6679 57.9951 30.2981C58.6767 29.9282 59.4763 29.8406 60.2219 30.0539C60.9675 30.2672 61.5997 30.7645 61.9827 31.4389C62.3656 32.1133 62.4687 32.911 62.2699 33.6606ZM81.9308 55.9462L70.0846 64.8308C69.4563 65.302 68.6664 65.5044 67.8889 65.3933C67.1113 65.2822 66.4097 64.8668 65.9385 64.2385C65.4672 63.6101 65.2648 62.8203 65.3759 62.0427C65.487 61.2652 65.9024 60.5636 66.5308 60.0923L75.2192 53.5769L66.5308 47.0615C66.2196 46.8282 65.9575 46.5358 65.7594 46.2012C65.5612 45.8665 65.4309 45.4961 65.3759 45.1111C65.3209 44.7261 65.3423 44.3341 65.4388 43.9573C65.5353 43.5806 65.7051 43.2265 65.9385 42.9154C66.1718 42.6043 66.4642 42.3421 66.7988 42.144C67.1335 41.9458 67.5039 41.8155 67.8889 41.7605C68.2739 41.7055 68.6659 41.7269 69.0427 41.8234C69.4194 41.9199 69.7735 42.0897 70.0846 42.3231L81.9308 51.2077C82.2986 51.4836 82.5971 51.8413 82.8027 52.2525C83.0083 52.6637 83.1154 53.1172 83.1154 53.5769C83.1154 54.0367 83.0083 54.4901 82.8027 54.9014C82.5971 55.3126 82.2986 55.6703 81.9308 55.9462Z" fill="#9747FF"/>
</svg>
