<svg width="19" height="25" viewBox="0 0 19 25" fill="none" xmlns="http://www.w3.org/2000/svg">
<path d="M12.0736 24.5918C10.7049 24.5918 10.2452 23.3998 10.2452 22.8569L10.2535 18.7839C10.2535 18.6862 10.2077 18.5926 10.1287 18.5322C10.0746 18.4906 10.008 18.4698 9.94146 18.4698C9.91234 18.4698 9.88113 18.474 9.85201 18.4823C9.55663 18.5718 9.27164 18.6154 9.00746 18.6154C8.217 18.6154 7.70527 18.2098 7.41613 17.8687C7.18731 17.6003 6.8524 17.4485 6.49669 17.4485C6.36772 17.4485 6.24083 17.4693 6.12018 17.5088C5.96833 17.5587 5.80608 17.5837 5.63758 17.5837C5.36924 17.5837 5.0801 17.5192 4.78471 17.3923C4.39364 17.2238 4.10034 16.9263 3.92352 16.7038C3.73631 16.4687 3.35147 16.0735 2.88344 16.0735C2.81271 16.0735 2.74406 16.0818 2.6775 16.1005C2.57765 16.1276 2.45908 16.1421 2.33427 16.1421C1.76638 16.1421 1.02168 15.8592 0.64309 15.0646C0.299861 14.349 0.308182 10.3884 0.312342 9.08826C0.318583 5.66638 2.6775 0.792532 2.70246 0.742607C2.71078 0.725966 2.71702 0.709325 2.72326 0.690603C2.78567 0.468025 2.9916 0.312012 3.2225 0.312012L11.487 0.382738C11.7242 0.386898 11.9301 0.553312 11.9863 0.786291L12.0487 1.05463C12.3565 2.3797 13.1304 3.55916 14.2849 4.47028C14.5324 4.66581 14.7446 4.89879 14.9172 5.16297C15.8408 6.58789 16.3505 7.84016 16.8414 9.05082C17.3053 10.197 17.7442 11.2787 18.491 12.3957C18.6574 12.6454 18.778 13.3318 18.595 13.881C18.4785 14.2346 18.258 14.4717 17.9418 14.582C17.688 14.6714 17.4571 14.7151 17.2366 14.7151C16.4524 14.7151 15.7659 14.1306 15.0088 12.818C14.1996 11.4181 14.1496 11.0499 14.1476 11.0353C14.1413 10.8668 14.004 10.7378 13.8355 10.7378H13.8314C13.6608 10.7399 13.5256 10.8834 13.5235 11.054L13.4986 22.9256C13.4986 23.3603 13.2365 24.5918 12.0736 24.5918Z" fill="url(#paint0_linear_3_4)"/>
<defs>
<linearGradient id="paint0_linear_3_4" x1="9.47201" y1="24.5835" x2="9.52283" y2="0.328709" gradientUnits="userSpaceOnUse">
<stop offset="0.1277" stop-color="#FFB300"/>
<stop offset="0.6467" stop-color="#FFCA28"/>
</linearGradient>
</defs>
</svg>
