<svg width="25" height="25" viewBox="0 0 18 18" fill="none" xmlns="http://www.w3.org/2000/svg">
<path d="M16.4166 0.666687H1.58329C1.34018 0.666687 1.10702 0.763264 0.935112 0.935173C0.763203 1.10708 0.666626 1.34024 0.666626 1.58335V16.4167C0.666626 16.6598 0.763203 16.893 0.935112 17.0649C1.10702 17.2368 1.34018 17.3334 1.58329 17.3334H9.56663V10.875H7.39996V8.37502H9.56663V6.50002C9.52174 6.05982 9.57371 5.61513 9.71889 5.19713C9.86406 4.77914 10.0989 4.39797 10.407 4.08036C10.7151 3.76275 11.0889 3.51639 11.5023 3.35855C11.9157 3.20072 12.3586 3.13523 12.8 3.16669C13.4486 3.1627 14.0969 3.19608 14.7416 3.26669V5.51669H13.4166C12.3666 5.51669 12.1666 6.01669 12.1666 6.74169V8.35002H14.6666L14.3416 10.85H12.1666V17.3334H16.4166C16.537 17.3334 16.6562 17.3096 16.7674 17.2636C16.8786 17.2175 16.9797 17.15 17.0648 17.0649C17.1499 16.9797 17.2174 16.8787 17.2635 16.7675C17.3096 16.6563 17.3333 16.5371 17.3333 16.4167V1.58335C17.3333 1.46298 17.3096 1.34378 17.2635 1.23256C17.2174 1.12135 17.1499 1.02029 17.0648 0.935173C16.9797 0.850052 16.8786 0.782531 16.7674 0.736464C16.6562 0.690397 16.537 0.666687 16.4166 0.666687Z" fill="black"/>
</svg>
