<svg width="77" height="77" viewBox="0 0 77 77" fill="none" xmlns="http://www.w3.org/2000/svg">
<g clip-path="url(#clip0_4_100)">
<path d="M74.5831 68.8936L64.1667 58.5414V18.7153L59.2473 9.66776C58.8844 8.97797 58.3399 8.40043 57.6727 7.99753C57.0055 7.59463 56.2409 7.38168 55.4614 7.38168C54.682 7.38168 53.9174 7.59463 53.2502 7.99753C52.5829 8.40043 52.0385 8.97797 51.6756 9.66776L47.0556 18.7367V41.5158L7.93531 2.58804C7.63614 2.28639 7.25392 2.08067 6.83737 1.99711C6.42083 1.91354 5.98884 1.95592 5.59647 2.11883C5.20411 2.28174 4.86914 2.55781 4.63429 2.91184C4.39944 3.26587 4.27534 3.68181 4.27781 4.10665V21.3889H8.9192V24.8111H4.27781V38.5H8.9192V41.9222H4.27781V56.1458H8.9192V59.568H4.27781V70.4122C4.27781 70.9795 4.50315 71.5235 4.90427 71.9246C5.30539 72.3257 5.84943 72.5511 6.4167 72.5511H73.0645C73.4893 72.5536 73.9053 72.4295 74.2593 72.1946C74.6133 71.9598 74.8894 71.6248 75.0523 71.2324C75.2152 70.8401 75.2576 70.4081 75.174 69.9915C75.0905 69.575 74.8847 69.1928 74.5831 68.8936ZM21.3889 55.6111V36.2328L40.7886 55.6111H21.3889ZM59.8889 60.1241H51.3334V54.9266H59.8889V60.1241ZM59.8889 51.5686H51.3334V19.7847L55.4828 11.7211L59.8889 19.8061V51.5686Z" fill="#9747FF"/>
</g>
<defs>
<clipPath id="clip0_4_100">
<rect width="77" height="77" fill="white"/>
</clipPath>
</defs>
</svg>
