<svg width="25" height="25" viewBox="0 0 40 40" fill="none" xmlns="http://www.w3.org/2000/svg">
<path d="M22.056 0.00246071C23.5154 -0.00313955 24.9748 0.0115282 26.4338 0.0464594L26.8218 0.0604588C27.2698 0.0764583 27.7117 0.0964575 28.2457 0.120457C30.3736 0.220453 31.8255 0.556442 33.0995 1.05043C34.4194 1.55841 35.5313 2.24638 36.6433 3.35835C37.66 4.35752 38.4468 5.56616 38.9492 6.90023C39.4431 8.17418 39.7791 9.62813 39.8791 11.7561C39.9031 12.288 39.9231 12.732 39.9391 13.18L39.9511 13.568C39.9866 15.0263 40.002 16.4851 39.9971 17.9439L39.9991 19.4358V22.0557C40.004 23.5151 39.9887 24.9746 39.9531 26.4336L39.9411 26.8215C39.9251 27.2695 39.9051 27.7115 39.8811 28.2455C39.7811 30.3734 39.4411 31.8254 38.9492 33.0993C38.4485 34.4348 37.6614 35.6444 36.6433 36.6432C35.6432 37.6598 34.434 38.4467 33.0995 38.9491C31.8255 39.4431 30.3736 39.7791 28.2457 39.8791C27.7117 39.9031 27.2698 39.9231 26.8218 39.9391L26.4338 39.9511C24.9748 39.9867 23.5154 40.002 22.056 39.9971L20.5641 39.9991H17.9462C16.4868 40.004 15.0274 39.9887 13.5685 39.9531L13.1805 39.9411C12.7057 39.9239 12.2311 39.9039 11.7565 39.8811C9.62866 39.7811 8.17673 39.4411 6.9008 38.9491C5.56624 38.4478 4.35741 37.6608 3.35898 36.6432C2.34112 35.6438 1.55352 34.4344 1.0511 33.0993C0.557126 31.8254 0.221143 30.3734 0.121148 28.2455C0.0988746 27.7709 0.0788755 27.2963 0.0611508 26.8215L0.0511516 26.4336C0.0142806 24.9746 -0.00238697 23.5152 0.00115394 22.0557V17.9439C-0.0044277 16.4851 0.0102398 15.0263 0.0451518 13.568L0.0591511 13.18C0.0751502 12.732 0.0951491 12.288 0.119148 11.7561C0.219143 9.62613 0.555125 8.17618 1.0491 6.90023C1.55182 5.56551 2.34096 4.3572 3.36098 3.36035C4.35872 2.34189 5.56679 1.55355 6.9008 1.05043C8.17673 0.556442 9.62666 0.220453 11.7565 0.120457L13.1805 0.0604588L13.5685 0.0504594C15.0267 0.0136063 16.4855 -0.0030616 17.9442 0.00046092L22.056 0.00246071ZM20.0001 10.0021C18.6752 9.98338 17.3598 10.2282 16.1303 10.7222C14.9008 11.2163 13.7817 11.9498 12.8382 12.8801C11.8946 13.8105 11.1454 14.919 10.634 16.1414C10.1226 17.3638 9.85923 18.6757 9.85923 20.0008C9.85923 21.3259 10.1226 22.6377 10.634 23.8601C11.1454 25.0825 11.8946 26.1911 12.8382 27.1214C13.7817 28.0518 14.9008 28.7853 16.1303 29.2793C17.3598 29.7734 18.6752 30.0182 20.0001 29.9994C22.6522 29.9994 25.1956 28.9459 27.0708 27.0706C28.9461 25.1953 29.9996 22.6519 29.9996 19.9998C29.9996 17.3477 28.9461 14.8043 27.0708 12.929C25.1956 11.0537 22.6522 10.0021 20.0001 10.0021ZM20.0001 14.002C20.7971 13.9873 21.589 14.1316 22.3296 14.4264C23.0702 14.7212 23.7446 15.1606 24.3135 15.719C24.8823 16.2774 25.3342 16.9435 25.6427 17.6785C25.9512 18.4135 26.1102 19.2026 26.1103 19.9998C26.1105 20.7969 25.9518 21.586 25.6435 22.3211C25.3352 23.0562 24.8836 23.7225 24.3149 24.2811C23.7462 24.8397 23.0719 25.2793 22.3315 25.5744C21.591 25.8695 20.7991 26.014 20.0021 25.9996C18.4109 25.9996 16.8849 25.3675 15.7597 24.2423C14.6345 23.1171 14.0024 21.591 14.0024 19.9998C14.0024 18.4085 14.6345 16.8825 15.7597 15.7573C16.8849 14.6321 18.4109 14 20.0021 14L20.0001 14.002ZM30.4996 7.00222C29.8544 7.02805 29.2442 7.30251 28.7969 7.76814C28.3495 8.23376 28.0997 8.85443 28.0997 9.50014C28.0997 10.1458 28.3495 10.7665 28.7969 11.2321C29.2442 11.6978 29.8544 11.9722 30.4996 11.9981C31.1626 11.9981 31.7985 11.7347 32.2673 11.2658C32.7361 10.797 32.9995 10.1612 32.9995 9.49814C32.9995 8.83512 32.7361 8.19926 32.2673 7.73043C31.7985 7.26161 31.1626 6.99822 30.4996 6.99822V7.00222Z" fill="black"/>
</svg>
