<svg width="243" height="50" viewBox="0 0 243 50" fill="none" xmlns="http://www.w3.org/2000/svg">
<path d="M234.502 7.92169H240.635L227.235 23.2384L243 44.0767H230.657L220.99 31.4367L209.927 44.0767H203.79L218.123 27.6934L203 7.92336H215.657L224.395 19.4767L234.502 7.92169ZM232.35 40.4067H235.748L213.81 11.4H210.163L232.35 40.4067Z" fill="black"/>
<path d="M45.8333 25C45.8333 13.5 36.5 4.16669 25 4.16669C13.5 4.16669 4.16663 13.5 4.16663 25C4.16663 35.0834 11.3333 43.4792 20.8333 45.4167V31.25H16.6666V25H20.8333V19.7917C20.8333 15.7709 24.1041 12.5 28.125 12.5H33.3333V18.75H29.1666C28.0208 18.75 27.0833 19.6875 27.0833 20.8334V25H33.3333V31.25H27.0833V45.7292C37.6041 44.6875 45.8333 35.8125 45.8333 25Z" fill="black"/>
<path d="M129.056 6.00246C130.515 5.99686 131.975 6.01153 133.434 6.04646L133.822 6.06046C134.27 6.07646 134.712 6.09646 135.246 6.12046C137.374 6.22045 138.826 6.55644 140.099 7.05043C141.419 7.55841 142.531 8.24638 143.643 9.35835C144.66 10.3575 145.447 11.5662 145.949 12.9002C146.443 14.1742 146.779 15.6281 146.879 17.7561C146.903 18.288 146.923 18.732 146.939 19.18L146.951 19.568C146.987 21.0263 147.002 22.4851 146.997 23.9439L146.999 25.4358V28.0557C147.004 29.5151 146.989 30.9746 146.953 32.4336L146.941 32.8215C146.925 33.2695 146.905 33.7115 146.881 34.2455C146.781 36.3734 146.441 37.8254 145.949 39.0993C145.448 40.4348 144.661 41.6444 143.643 42.6432C142.643 43.6598 141.434 44.4467 140.099 44.9491C138.826 45.4431 137.374 45.7791 135.246 45.8791C134.712 45.9031 134.27 45.9231 133.822 45.9391L133.434 45.9511C131.975 45.9867 130.515 46.002 129.056 45.9971L127.564 45.9991H124.946C123.487 46.004 122.027 45.9887 120.568 45.9531L120.18 45.9411C119.706 45.9239 119.231 45.9039 118.757 45.8811C116.629 45.7811 115.177 45.4411 113.901 44.9491C112.566 44.4478 111.357 43.6608 110.359 42.6432C109.341 41.6438 108.554 40.4344 108.051 39.0993C107.557 37.8254 107.221 36.3734 107.121 34.2455C107.099 33.7709 107.079 33.2963 107.061 32.8215L107.051 32.4336C107.014 30.9746 106.998 29.5152 107.001 28.0557V23.9439C106.996 22.4851 107.01 21.0263 107.045 19.568L107.059 19.18C107.075 18.732 107.095 18.288 107.119 17.7561C107.219 15.6261 107.555 14.1762 108.049 12.9002C108.552 11.5655 109.341 10.3572 110.361 9.36035C111.359 8.34189 112.567 7.55355 113.901 7.05043C115.177 6.55644 116.627 6.22045 118.757 6.12046L120.18 6.06046L120.568 6.05046C122.027 6.01361 123.485 5.99694 124.944 6.00046L129.056 6.00246ZM127 16.0021C125.675 15.9834 124.36 16.2282 123.13 16.7222C121.901 17.2163 120.782 17.9498 119.838 18.8801C118.895 19.8105 118.145 20.919 117.634 22.1414C117.123 23.3638 116.859 24.6757 116.859 26.0008C116.859 27.3259 117.123 28.6377 117.634 29.8601C118.145 31.0825 118.895 32.1911 119.838 33.1214C120.782 34.0518 121.901 34.7853 123.13 35.2793C124.36 35.7734 125.675 36.0182 127 35.9994C129.652 35.9994 132.196 34.9459 134.071 33.0706C135.946 31.1953 137 28.6519 137 25.9998C137 23.3477 135.946 20.8043 134.071 18.929C132.196 17.0537 129.652 16.0021 127 16.0021ZM127 20.002C127.797 19.9873 128.589 20.1316 129.33 20.4264C130.07 20.7212 130.745 21.1606 131.313 21.719C131.882 22.2774 132.334 22.9435 132.643 23.6785C132.951 24.4135 133.11 25.2026 133.11 25.9998C133.11 26.7969 132.952 27.586 132.643 28.3211C132.335 29.0562 131.884 29.7225 131.315 30.2811C130.746 30.8397 130.072 31.2793 129.331 31.5744C128.591 31.8695 127.799 32.014 127.002 31.9996C125.411 31.9996 123.885 31.3675 122.76 30.2423C121.635 29.1171 121.002 27.591 121.002 25.9998C121.002 24.4085 121.635 22.8825 122.76 21.7573C123.885 20.6321 125.411 20 127.002 20L127 20.002ZM137.5 13.0022C136.854 13.028 136.244 13.3025 135.797 13.7681C135.35 14.2338 135.1 14.8544 135.1 15.5001C135.1 16.1458 135.35 16.7665 135.797 17.2321C136.244 17.6978 136.854 17.9722 137.5 17.9981C138.163 17.9981 138.798 17.7347 139.267 17.2658C139.736 16.797 139.999 16.1612 139.999 15.4981C139.999 14.8351 139.736 14.1993 139.267 13.7304C138.798 13.2616 138.163 12.9982 137.5 12.9982V13.0022Z" fill="black"/>
</svg>
