<svg width="77" height="62" viewBox="0 0 77 62" fill="none" xmlns="http://www.w3.org/2000/svg">
<path d="M12.5125 0C9.19398 0 6.01137 1.32684 3.66483 3.68862C1.31828 6.05041 0 9.25368 0 12.5938V49.4062C0 52.7463 1.31828 55.9496 3.66483 58.3114C6.01137 60.6732 9.19398 62 12.5125 62H64.4875C66.1307 62 67.7577 61.6743 69.2758 61.0414C70.7939 60.4085 72.1733 59.4808 73.3352 58.3114C74.4971 57.1419 75.4187 55.7536 76.0475 54.2257C76.6764 52.6977 77 51.0601 77 49.4062V12.5938C77 10.9399 76.6764 9.30227 76.0475 7.77433C75.4187 6.24639 74.4971 4.85806 73.3352 3.68862C72.1733 2.51919 70.7939 1.59154 69.2758 0.958643C67.7577 0.325748 66.1307 0 64.4875 0H12.5125ZM11.55 14.5312C11.55 13.7605 11.8542 13.0212 12.3957 12.4762C12.9372 11.9312 13.6717 11.625 14.4375 11.625H35.6125C36.3783 11.625 37.1128 11.9312 37.6543 12.4762C38.1958 13.0212 38.5 13.7605 38.5 14.5312C38.5 15.302 38.1958 16.0413 37.6543 16.5863C37.1128 17.1313 36.3783 17.4375 35.6125 17.4375H14.4375C13.6717 17.4375 12.9372 17.1313 12.3957 16.5863C11.8542 16.0413 11.55 15.302 11.55 14.5312ZM15.4 34.875H42.35C43.3711 34.875 44.3503 35.2833 45.0724 36.01C45.7944 36.7367 46.2 37.7223 46.2 38.75V46.5C46.2 47.5277 45.7944 48.5133 45.0724 49.24C44.3503 49.9667 43.3711 50.375 42.35 50.375H15.4C14.3789 50.375 13.3997 49.9667 12.6776 49.24C11.9556 48.5133 11.55 47.5277 11.55 46.5V38.75C11.55 37.7223 11.9556 36.7367 12.6776 36.01C13.3997 35.2833 14.3789 34.875 15.4 34.875ZM14.4375 21.3125H54.8625C55.6283 21.3125 56.3628 21.6187 56.9043 22.1637C57.4458 22.7087 57.75 23.448 57.75 24.2188C57.75 24.9895 57.4458 25.7288 56.9043 26.2738C56.3628 26.8188 55.6283 27.125 54.8625 27.125H14.4375C13.6717 27.125 12.9372 26.8188 12.3957 26.2738C11.8542 25.7288 11.55 24.9895 11.55 24.2188C11.55 23.448 11.8542 22.7087 12.3957 22.1637C12.9372 21.6187 13.6717 21.3125 14.4375 21.3125Z" fill="#9747FF"/>
</svg>
